<svg viewBox="0 0 360 90" xmlns="http://www.w3.org/2000/svg" role="img" aria-label="GetForged">
  <!-- Hex shield mark -->
  <g>
    <path
      fill-rule="evenodd"
      clip-rule="evenodd"
      fill="#e8920a"
      d="M 25 4 L 75 4 L 96 45 L 75 86 L 25 86 L 4 45 Z M 50 22 C 36 22, 28 32, 28 45 C 28 58, 36 68, 50 68 C 60 68, 67 64, 71 58 L 71 47 L 49 47 L 49 53 L 62 53 C 60 58, 56 61, 50 61 C 41 61, 36 54, 36 45 C 36 36, 41 29, 50 29 C 56 29, 60 32, 63 37 L 70 32 C 65 25, 58 22, 50 22 Z"/>
    <path fill="#e8920a" d="M 71 47 L 78 43 L 78 51 Z"/>
  </g>
  <!-- Wordmark -->
  <g transform="translate(120 0)" font-family="'Bebas Neue', 'Arial Narrow', sans-serif" font-size="62" font-weight="500" letter-spacing="3">
    <text x="0" y="64" fill="#1a1c24">GET</text>
    <text x="112" y="64" fill="#e8920a">FORGED</text>
  </g>
</svg>
